<svg width="19" height="19" viewBox="0 0 19 19" fill="none" xmlns="http://www.w3.org/2000/svg">
<g id="fi-rr-angle-small-down">
<path id="Vector" d="M14.9657 6.4572C14.896 6.3869 14.813 6.33111 14.7216 6.29303C14.6303 6.25496 14.5322 6.23535 14.4332 6.23535C14.3342 6.23535 14.2362 6.25496 14.1448 6.29303C14.0534 6.33111 13.9704 6.3869 13.9007 6.4572L10.4657 9.89219C10.396 9.96249 10.313 10.0183 10.2216 10.0564C10.1302 10.0944 10.0322 10.114 9.93321 10.114C9.8342 10.114 9.73617 10.0944 9.64478 10.0564C9.55338 10.0183 9.47043 9.96249 9.40071 9.89219L5.96571 6.4572C5.89599 6.3869 5.81304 6.33111 5.72164 6.29303C5.63025 6.25496 5.53222 6.23535 5.43321 6.23535C5.3342 6.23535 5.23617 6.25496 5.14478 6.29303C5.05338 6.33111 4.97043 6.3869 4.90071 6.4572C4.76102 6.59772 4.68262 6.78781 4.68262 6.98595C4.68262 7.18409 4.76102 7.37418 4.90071 7.5147L8.34321 10.9572C8.76509 11.3785 9.33696 11.6152 9.93321 11.6152C10.5295 11.6152 11.1013 11.3785 11.5232 10.9572L14.9657 7.5147C15.1054 7.37418 15.1838 7.18409 15.1838 6.98595C15.1838 6.78781 15.1054 6.59772 14.9657 6.4572Z" fill="#222222"/>
</g>
</svg>
